<svg width="139" height="20" viewBox="0 0 139 20" fill="none" xmlns="http://www.w3.org/2000/svg">
<path d="M0.25 19V1H15.2617C16.3867 1 17.293 1.09375 17.9805 1.28125C18.668 1.46094 19.1953 1.73047 19.5625 2.08984C19.9375 2.44141 20.1875 2.88281 20.3125 3.41406C20.4375 3.94531 20.5 4.55469 20.5 5.24219C20.5 5.74219 20.457 6.18359 20.3711 6.56641C20.2852 6.94922 20.1719 7.28125 20.0312 7.5625C19.8906 7.84375 19.7305 8.08203 19.5508 8.27734C19.3711 8.46484 19.1875 8.62109 19 8.74609C18.5625 9.04297 18.0625 9.21094 17.5 9.25C18.2031 9.28906 18.8281 9.46094 19.375 9.76562C19.6094 9.89844 19.8359 10.0664 20.0547 10.2695C20.2812 10.4648 20.4805 10.7109 20.6523 11.0078C20.832 11.2969 20.9766 11.6406 21.0859 12.0391C21.1953 12.4297 21.25 12.8828 21.25 13.3984C21.25 14.0234 21.2188 14.5977 21.1562 15.1211C21.1016 15.6367 20.9844 16.1016 20.8047 16.5156C20.625 16.9297 20.3672 17.293 20.0312 17.6055C19.6953 17.918 19.2461 18.1797 18.6836 18.3906C18.1289 18.5938 17.4453 18.7461 16.6328 18.8477C15.8281 18.9492 14.8633 19 13.7383 19H0.25ZM12.9883 17.125C13.8633 17.125 14.6211 17.1133 15.2617 17.0898C15.9023 17.0586 16.4453 17 16.8906 16.9141C17.3359 16.8203 17.6953 16.6914 17.9688 16.5273C18.2422 16.3555 18.4531 16.1328 18.6016 15.8594C18.7578 15.5781 18.8633 15.2383 18.918 14.8398C18.9727 14.4414 19 13.9609 19 13.3984C19 12.9609 18.9727 12.582 18.918 12.2617C18.8633 11.9336 18.7578 11.6602 18.6016 11.4414C18.4531 11.2148 18.2422 11.0352 17.9688 10.9023C17.6953 10.7617 17.3359 10.6523 16.8906 10.5742C16.4453 10.4961 15.9023 10.4453 15.2617 10.4219C14.6211 10.3906 13.8633 10.375 12.9883 10.375H2.5V17.125H12.9883ZM12.9883 8.5C13.7539 8.5 14.4141 8.48438 14.9688 8.45312C15.5234 8.42188 15.9961 8.36328 16.3867 8.27734C16.7773 8.19141 17.0938 8.07422 17.3359 7.92578C17.5781 7.76953 17.7656 7.57031 17.8984 7.32812C18.0391 7.08594 18.1328 6.79688 18.1797 6.46094C18.2266 6.11719 18.25 5.71094 18.25 5.24219C18.25 4.74219 18.1953 4.33594 18.0859 4.02344C17.9766 3.71094 17.7812 3.47266 17.5 3.30859C17.2188 3.13672 16.8359 3.02344 16.3516 2.96875C15.875 2.90625 15.2617 2.875 14.5117 2.875H2.5V8.5H12.9883ZM42.625 14.875H28.375L26.125 19H23.5L34 1H37L47.5 19H44.875L42.625 14.875ZM41.5 13L35.5 2.5L29.5 13H41.5ZM49.75 1H52.75L61 9.8125L69.25 1H72.25L62.125 11.5V19H59.875V11.5L49.75 1ZM87.625 8.875C88.8594 8.875 89.918 8.92578 90.8008 9.02734C91.6836 9.12891 92.4258 9.28125 93.0273 9.48438C93.6367 9.67969 94.1211 9.92578 94.4805 10.2227C94.8398 10.5195 95.1172 10.8594 95.3125 11.2422C95.5078 11.6172 95.6328 12.0391 95.6875 12.5078C95.75 12.9766 95.7812 13.4844 95.7812 14.0312C95.7812 14.5781 95.7305 15.0938 95.6289 15.5781C95.5352 16.0547 95.3633 16.4922 95.1133 16.8906C94.8633 17.2891 94.5234 17.6445 94.0938 17.957C93.6641 18.2695 93.1172 18.5352 92.4531 18.7539C91.7891 18.9727 90.9883 19.1367 90.0508 19.2461C89.1211 19.3633 88.0312 19.4219 86.7812 19.4219H83.7812C82.6562 19.4219 81.6719 19.3789 80.8281 19.293C79.9844 19.207 79.2578 19.0781 78.6484 18.9062C78.0391 18.7266 77.5352 18.5039 77.1367 18.2383C76.7383 17.9648 76.418 17.6484 76.1758 17.2891C75.9414 16.9219 75.7773 16.5078 75.6836 16.0469C75.5898 15.5781 75.543 15.0625 75.543 14.5H77.793C77.793 15.2031 77.8945 15.7539 78.0977 16.1523C78.3008 16.5508 78.6367 16.8516 79.1055 17.0547C79.5742 17.25 80.1875 17.375 80.9453 17.4297C81.7109 17.4766 82.6562 17.5 83.7812 17.5H86.7812C88.0938 17.5 89.1836 17.4375 90.0508 17.3125C90.918 17.1875 91.6094 16.9883 92.125 16.7148C92.6406 16.4414 93.0039 16.0859 93.2148 15.6484C93.4258 15.2031 93.5312 14.6641 93.5312 14.0312C93.5312 13.3984 93.457 12.8711 93.3086 12.4492C93.168 12.0273 92.8828 11.6914 92.4531 11.4414C92.0312 11.1914 91.4336 11.0156 90.6602 10.9141C89.8867 10.8047 88.875 10.75 87.625 10.75H84.5312C83.1562 10.75 81.9766 10.6992 80.9922 10.5977C80.0156 10.4961 79.1953 10.3516 78.5312 10.1641C77.8672 9.96875 77.3359 9.73047 76.9375 9.44922C76.5391 9.16016 76.2344 8.83203 76.0234 8.46484C75.8203 8.09766 75.6875 7.69141 75.625 7.24609C75.5625 6.79297 75.5312 6.30469 75.5312 5.78125C75.5312 5.23438 75.5781 4.72656 75.6719 4.25781C75.7734 3.78906 75.957 3.36719 76.2227 2.99219C76.4883 2.60938 76.8516 2.26953 77.3125 1.97266C77.7734 1.67578 78.3633 1.42969 79.082 1.23438C79.8086 1.03125 80.6797 0.878906 81.6953 0.777344C82.7109 0.675781 83.9062 0.625 85.2812 0.625H87.5312C88.6562 0.625 89.6406 0.667969 90.4844 0.753906C91.3281 0.832031 92.0547 0.960938 92.6641 1.14062C93.2734 1.3125 93.7773 1.53125 94.1758 1.79688C94.582 2.05469 94.9023 2.36719 95.1367 2.73438C95.3789 3.09375 95.5469 3.50391 95.6406 3.96484C95.7344 4.42578 95.7812 4.9375 95.7812 5.5H93.5312C93.5312 4.79688 93.4297 4.24609 93.2266 3.84766C93.0234 3.44922 92.6875 3.15234 92.2188 2.95703C91.75 2.75391 91.1328 2.62891 90.3672 2.58203C89.6016 2.52734 88.6562 2.5 87.5312 2.5H85.2812C83.7812 2.5 82.5469 2.55469 81.5781 2.66406C80.6094 2.76562 79.8438 2.94141 79.2812 3.19141C78.7188 3.44141 78.3281 3.77734 78.1094 4.19922C77.8906 4.62109 77.7812 5.14844 77.7812 5.78125C77.7812 6.17188 77.8086 6.51953 77.8633 6.82422C77.918 7.12891 78.0273 7.39844 78.1914 7.63281C78.3633 7.85938 78.6016 8.05078 78.9062 8.20703C79.2109 8.36328 79.6133 8.49219 80.1133 8.59375C80.6133 8.69531 81.2227 8.76953 81.9414 8.81641C82.668 8.85547 83.5312 8.875 84.5312 8.875H87.625ZM99.5312 19V1H117.531V2.875H101.781V8.875H116.781V10.75H101.781V17.125H117.531V19H99.5312ZM120.531 19V1H138.531V2.875H122.781V8.875H137.781V10.75H122.781V17.125H138.531V19H120.531Z" fill="white"/>
</svg>
